PathFileType	4	(X/Y/Z)	 control3min.trc
DataRate	CameraRate	NumFrames	NumMarkers	Units	OrigDataRate	OrigDataStartFrame	OrigNumFrames
200	200	8	43	m	200	876	1000
Frame#	Time	C7			LSH			RSH			MAN			RASI			LASI			HIPR			HIPL			RPSI			LPSI			COX			RTHI1			RTHI2			RTHI3			RTHI4			RLKN			RMKN			RSHA1			RSHA2			RSHA3			RSHA4			RLMAL			RMMAL			RHEEL			RMET5			RMET1			RTOE			LTHI1			LTHI2			LTHI3			LTHI4			LLKN			LMKN			LSHA1			LSHA2			LSHA3			LSHA4			LLMAL			LMMAL			LHEEL			LMET5			LMET1			LTOE			
		X1	Y1	Z1	X2	Y2	Z2	X3	Y3	Z3	X4	Y4	Z4	X5	Y5	Z5	X6	Y6	Z6	X7	Y7	Z7	X8	Y8	Z8	X9	Y9	Z9	X10	Y10	Z10	X11	Y11	Z11	X12	Y12	Z12	X13	Y13	Z13	X14	Y14	Z14	X15	Y15	Z15	X16	Y16	Z16	X17	Y17	Z17	X18	Y18	Z18	X19	Y19	Z19	X20	Y20	Z20	X21	Y21	Z21	X22	Y22	Z22	X23	Y23	Z23	X24	Y24	Z24	X25	Y25	Z25	X26	Y26	Z26	X27	Y27	Z27	X28	Y28	Z28	X29	Y29	Z29	X30	Y30	Z30	X31	Y31	Z31	X32	Y32	Z32	X33	Y33	Z33	X34	Y34	Z34	X35	Y35	Z35	X36	Y36	Z36	X37	Y37	Z37	X38	Y38	Z38	X39	Y39	Z39	X40	Y40	Z40	X41	Y41	Z41	X42	Y42	Z42	X43	Y43	Z43	
876	4.3800	-0.187904	1.528846	-0.564863	-0.077459	1.506498	-0.753807	-0.121444	1.505733	-0.360049	-0.050642	1.469580	-0.548026	-0.047532	1.026655	-0.418304	-0.014702	1.032315	-0.659688	-0.131165	1.087499	-0.392347	-0.087677	1.078158	-0.708998	-0.219817	1.063126	-0.507830	-0.207490	1.064104	-0.607801	-0.217986	1.060108	-0.558899	-0.151273	0.781500	-0.361129	-0.139485	0.723458	-0.357241	-0.078914	0.734353	-0.337005	-0.083541	0.795760	-0.339211	-0.090140	0.506638	-0.346353	-0.053818	0.487774	-0.453311	-0.143616	0.382920	-0.322543	-0.166408	0.345096	-0.325761	-0.111679	0.322095	-0.342598	-0.098381	0.361142	-0.336629	-0.245874	0.128574	-0.366571	-0.196275	0.131657	-0.439349	-0.284306	0.123911	-0.432869	-0.165115	0.053571	-0.316794	-0.100018	0.050851	-0.364696	-0.080331	0.043529	-0.352773	-0.065645	0.798026	-0.742351	-0.053796	0.737545	-0.743335	0.009598	0.744498	-0.730508	0.006190	0.804499	-0.728437	-0.032194	0.528497	-0.733443	-0.036622	0.493507	-0.621101	-0.107691	0.375165	-0.761343	-0.125368	0.338863	-0.759963	-0.076658	0.319164	-0.728294	-0.061704	0.358517	-0.737873	-0.223421	0.154069	-0.747929	-0.203030	0.153731	-0.663379	-0.286023	0.150056	-0.694502	-0.145193	0.060826	-0.764259	-0.091092	0.060474	-0.699701	-0.072938	0.052876	-0.706654	
877	4.3850	-0.187521	1.526070	-0.564541	-0.077206	1.503139	-0.753699	-0.120834	1.502469	-0.359657	-0.050432	1.466355	-0.547853	-0.048427	1.023654	-0.418129	-0.015771	1.029327	-0.659615	-0.132185	1.084321	-0.392170	-0.088847	1.074930	-0.708960	-0.220940	1.059719	-0.507731	-0.208545	1.060756	-0.607624	-0.219025	1.056732	-0.558763	-0.151251	0.778544	-0.360726	-0.139314	0.720520	-0.356769	-0.078738	0.731640	-0.336633	-0.083515	0.793010	-0.338940	-0.089316	0.503914	-0.345724	-0.053410	0.485083	-0.452892	-0.142768	0.380219	-0.321836	-0.165669	0.342493	-0.325011	-0.111111	0.319364	-0.342188	-0.097681	0.358380	-0.336174	-0.245973	0.126273	-0.365814	-0.196870	0.129418	-0.438900	-0.284862	0.122123	-0.431871	-0.165305	0.050551	-0.316788	-0.100262	0.048036	-0.365485	-0.080489	0.040713	-0.353882	-0.065861	0.795013	-0.742074	-0.053719	0.734586	-0.743070	0.009680	0.741850	-0.730428	0.005977	0.801835	-0.728368	-0.031125	0.525650	-0.733114	-0.035673	0.490738	-0.620790	-0.107439	0.372747	-0.761029	-0.125421	0.336589	-0.759639	-0.076969	0.316547	-0.727744	-0.061677	0.355792	-0.737356	-0.224966	0.152582	-0.747644	-0.204948	0.152371	-0.663028	-0.287947	0.148933	-0.694567	-0.147033	0.059104	-0.763391	-0.093312	0.058711	-0.698497	-0.075130	0.051019	-0.705294	
878	4.3900	-0.187119	1.523060	-0.564222	-0.076917	1.499568	-0.753571	-0.120184	1.498980	-0.359306	-0.050213	1.462880	-0.547674	-0.049350	1.020446	-0.417984	-0.016890	1.026117	-0.659540	-0.133229	1.080945	-0.392025	-0.090040	1.071485	-0.708915	-0.222090	1.056057	-0.507628	-0.209626	1.057163	-0.607447	-0.220094	1.053105	-0.558629	-0.151233	0.775331	-0.360336	-0.139137	0.717336	-0.356300	-0.078576	0.728677	-0.336240	-0.083511	0.790031	-0.338648	-0.088427	0.500941	-0.345045	-0.052976	0.482154	-0.452452	-0.141868	0.377267	-0.321100	-0.164883	0.339641	-0.324240	-0.110508	0.316392	-0.341791	-0.096931	0.355359	-0.335739	-0.246211	0.123825	-0.365143	-0.197594	0.127045	-0.438527	-0.285543	0.120067	-0.430961	-0.165603	0.047546	-0.316603	-0.100445	0.045487	-0.366198	-0.080564	0.038229	-0.354943	-0.066142	0.791729	-0.741785	-0.053709	0.731358	-0.742804	0.009697	0.738938	-0.730398	0.005699	0.798906	-0.728348	-0.030041	0.522549	-0.732769	-0.034775	0.487733	-0.620457	-0.107141	0.370067	-0.760713	-0.125411	0.334057	-0.759318	-0.077227	0.313687	-0.727191	-0.061605	0.352809	-0.736833	-0.226462	0.150882	-0.747402	-0.206803	0.150748	-0.662719	-0.289778	0.147603	-0.694635	-0.148880	0.057119	-0.762659	-0.095525	0.056544	-0.697444	-0.077336	0.048705	-0.704087	
879	4.3950	-0.186672	1.519796	-0.563893	-0.076601	1.495795	-0.753432	-0.119506	1.495262	-0.359000	-0.049969	1.459157	-0.547483	-0.050307	1.017025	-0.417866	-0.018048	1.022675	-0.659464	-0.134291	1.077380	-0.391914	-0.091256	1.067830	-0.708861	-0.223276	1.052163	-0.507530	-0.210738	1.053329	-0.607274	-0.221194	1.049245	-0.558497	-0.151219	0.771870	-0.359962	-0.138952	0.713905	-0.355835	-0.078410	0.725490	-0.335827	-0.083531	0.786810	-0.338336	-0.087453	0.497731	-0.344305	-0.052500	0.478987	-0.451972	-0.140952	0.374069	-0.320351	-0.164087	0.336561	-0.323464	-0.109923	0.313169	-0.341414	-0.096175	0.352075	-0.335306	-0.246698	0.121282	-0.364610	-0.198513	0.124579	-0.438263	-0.286420	0.117705	-0.430196	-0.166018	0.044795	-0.316167	-0.100564	0.043482	-0.366771	-0.080533	0.036336	-0.355832	-0.066487	0.788166	-0.741485	-0.053766	0.727856	-0.742542	0.009653	0.735754	-0.730408	0.005357	0.795704	-0.728369	-0.028948	0.519212	-0.732411	-0.033912	0.484495	-0.620114	-0.106809	0.367133	-0.760400	-0.125355	0.331275	-0.759006	-0.077437	0.310585	-0.726656	-0.061494	0.349577	-0.736323	-0.227896	0.148974	-0.747210	-0.208581	0.148870	-0.662464	-0.291505	0.146087	-0.694714	-0.150744	0.054867	-0.762091	-0.097734	0.053991	-0.696573	-0.079544	0.045996	-0.703040	
880	4.4000	-0.186210	1.516287	-0.563569	-0.076245	1.491821	-0.753276	-0.118808	1.491327	-0.358732	-0.049717	1.455180	-0.547288	-0.051306	1.013396	-0.417778	-0.019242	1.019001	-0.659384	-0.135372	1.073625	-0.391835	-0.092487	1.063960	-0.708804	-0.224501	1.048053	-0.507441	-0.211882	1.049262	-0.607099	-0.222327	1.045153	-0.558370	-0.151205	0.768158	-0.359601	-0.138749	0.710238	-0.355379	-0.078251	0.722063	-0.335393	-0.083573	0.783362	-0.338005	-0.086375	0.494281	-0.343489	-0.051958	0.475576	-0.451422	-0.140069	0.370655	-0.319615	-0.163356	0.333255	-0.322715	-0.109419	0.309696	-0.341049	-0.095452	0.348516	-0.334879	-0.247525	0.118744	-0.364270	-0.199687	0.122066	-0.438136	-0.287559	0.115051	-0.429611	-0.166567	0.042481	-0.315429	-0.100688	0.042176	-0.367007	-0.080404	0.035071	-0.356503	-0.066898	0.784330	-0.741195	-0.053890	0.724083	-0.742291	0.009540	0.732302	-0.730458	0.004950	0.792236	-0.728426	-0.027869	0.515637	-0.732049	-0.033077	0.481017	-0.619769	-0.106452	0.363952	-0.760098	-0.125262	0.328236	-0.758712	-0.077599	0.307250	-0.726149	-0.061348	0.346102	-0.735832	-0.229277	0.146863	-0.747070	-0.210283	0.146710	-0.662262	-0.293102	0.144383	-0.694791	-0.152637	0.052320	-0.761690	-0.099964	0.051165	-0.695843	-0.081773	0.043112	-0.702133	
881	4.4050	-0.185741	1.512533	-0.563248	-0.075869	1.487655	-0.753109	-0.118094	1.487179	-0.358493	-0.049445	1.450963	-0.547084	-0.052341	1.009565	-0.417717	-0.020462	1.015096	-0.659305	-0.136469	1.069684	-0.391783	-0.093738	1.059877	-0.708749	-0.225756	1.043717	-0.507346	-0.213053	1.044960	-0.606918	-0.223501	1.040829	-0.558246	-0.151192	0.764197	-0.359251	-0.138528	0.706340	-0.354935	-0.078085	0.718417	-0.334933	-0.083636	0.779681	-0.337650	-0.085175	0.490595	-0.342586	-0.051314	0.471921	-0.450772	-0.139267	0.367027	-0.318911	-0.162743	0.329764	-0.322025	-0.109034	0.305974	-0.340687	-0.094808	0.344693	-0.334446	-0.248723	0.116265	-0.364106	-0.201129	0.119513	-0.438127	-0.288972	0.112183	-0.429206	-0.167252	0.040712	-0.314403	-0.100903	0.041456	-0.366870	-0.080341	0.034313	-0.356730	-0.067379	0.780219	-0.740925	-0.054081	0.720042	-0.742059	0.009357	0.728585	-0.730541	0.004473	0.788505	-0.728517	-0.026816	0.511825	-0.731684	-0.032262	0.477299	-0.619429	-0.106076	0.360531	-0.759819	-0.125134	0.324952	-0.758448	-0.077714	0.303681	-0.725683	-0.061169	0.342403	-0.735381	-0.230634	0.144554	-0.746981	-0.211916	0.144256	-0.662119	-0.294570	0.142448	-0.694846	-0.154548	0.049482	-0.761467	-0.102202	0.048190	-0.695195	-0.083991	0.040238	-0.701339	
882	4.4100	-0.185265	1.508537	-0.562926	-0.075464	1.483310	-0.752930	-0.117379	1.482834	-0.358273	-0.049157	1.446509	-0.546872	-0.053421	1.005541	-0.417682	-0.021681	1.010964	-0.659236	-0.137583	1.065556	-0.391757	-0.095006	1.055590	-0.708697	-0.227049	1.039175	-0.507250	-0.214254	1.040424	-0.606729	-0.224709	1.036269	-0.558114	-0.151190	0.759993	-0.358922	-0.138270	0.702208	-0.354532	-0.077917	0.714575	-0.334448	-0.083732	0.775791	-0.337270	-0.083839	0.486693	-0.341593	-0.050515	0.468037	-0.449996	-0.138578	0.363218	-0.318256	-0.162291	0.326108	-0.321425	-0.108785	0.302045	-0.340317	-0.094287	0.340641	-0.333994	-0.250219	0.113874	-0.364059	-0.202790	0.116945	-0.438207	-0.290633	0.109248	-0.428916	-0.168091	0.039400	-0.313233	-0.101310	0.041169	-0.366506	-0.080479	0.033918	-0.356526	-0.067933	0.775842	-0.740691	-0.054341	0.715730	-0.741861	0.009099	0.724601	-0.730652	0.003921	0.784515	-0.728636	-0.025801	0.507783	-0.731322	-0.031466	0.473333	-0.619105	-0.105686	0.356876	-0.759582	-0.124978	0.321434	-0.758231	-0.077800	0.299880	-0.725278	-0.060962	0.338490	-0.734986	-0.232005	0.142044	-0.746943	-0.213480	0.141520	-0.662030	-0.295959	0.140243	-0.694884	-0.156423	0.046424	-0.761460	-0.104327	0.045295	-0.694603	-0.086070	0.037644	-0.700614	
883	4.4150	-0.184784	1.504308	-0.562600	-0.075043	1.478782	-0.752744	-0.116672	1.478291	-0.358059	-0.048860	1.441830	-0.546655	-0.054550	1.001322	-0.417671	-0.022897	1.006596	-0.659190	-0.138716	1.061233	-0.391753	-0.096291	1.051094	-0.708659	-0.228387	1.034429	-0.507159	-0.215487	1.035662	-0.606537	-0.225957	1.031501	-0.557987	-0.151195	0.755550	-0.358605	-0.137988	0.697859	-0.354134	-0.077749	0.710545	-0.333928	-0.083854	0.771702	-0.336824	-0.082366	0.482602	-0.340533	-0.049498	0.463940	-0.449073	-0.138009	0.359287	-0.317664	-0.161997	0.322364	-0.320910	-0.108684	0.297951	-0.339917	-0.093888	0.336414	-0.333501	-0.251938	0.111558	-0.364089	-0.204624	0.114360	-0.438353	-0.292478	0.106349	-0.428691	-0.169086	0.038369	-0.312072	-0.101908	0.041148	-0.366077	-0.080816	0.033743	-0.356164	-0.068569	0.771208	-0.740538	-0.054674	0.711157	-0.741713	0.008762	0.720358	-0.730792	0.003286	0.780265	-0.728793	-0.024828	0.503520	-0.730970	-0.030685	0.469137	-0.618807	-0.105284	0.353014	-0.759394	-0.124810	0.317705	-0.758066	-0.077863	0.295861	-0.724946	-0.060739	0.334364	-0.734655	-0.233418	0.139355	-0.746958	-0.215020	0.138550	-0.661987	-0.297343	0.137707	-0.694931	-0.158171	0.043304	-0.761716	-0.106218	0.042742	-0.694047	-0.087851	0.035604	-0.699908	
